<svg width="550" height="140" xmlns="http://www.w3.org/2000/svg">
 <g>
  <title>Layer 1</title>
  <text style="cursor: move;" transform="rotate(-11 300.732 48.4366) matrix(2.23755 0 0 2.59443 -211.728 -282.414)" stroke="#000" fill="#BF7E96" stroke-width="0" x="145.80545" y="136.1096" id="svg_2" font-size="24" font-family="'Fraunces'" text-anchor="start" xml:space="preserve" font-style="italic" font-weight="bold">Ankit's Project</text>
  <path transform="rotate(71 136.4 38.338)" stroke="#000" fill="#EDB6DC" stroke-width="0" d="m155.61646,-101.25736c-2.24298,0.18686 -4.282,1.91294 -5.948,4.2617c0.00768,12.59373 -9.48746,23.42231 -12.69576,32.14131c1.9673,1.72823 0.96445,2.74385 -0.87997,4.14274c-0.14509,2.35406 0.39944,4.64779 2.10644,6.8806c-2.2114,39.17237 -5.14147,86.22857 -7.44078,125.78025c5.24731,0.1291 10.54409,1.0449 16.05599,0.64265c-0.00598,-30.4535 2.16704,-79.10337 2.80117,-108.51899c-0.0862,-9.55036 -0.43016,-22.47789 11.20128,-26.99871c-5.92752,-13.82901 5.05441,-33.39638 -4.74714,-38.33155c-0.12461,-0.00113 -0.25008,-0.00827 -0.37384,0c-0.02645,0.00176 -0.05291,-0.0022 -0.07938,0l0,0l0,0zm9.97909,160.67627c-4.02424,6.23663 -10.06443,9.51351 -12.07357,12.72679c-4.58838,7.92135 -12.27244,-2.96257 -22.95053,2.80258c0.05548,-0.9579 0.13059,-2.0318 0.18691,-2.99905c-0.06144,-0.00186 -0.12545,0.00094 -0.18691,0c-5.68344,0.94761 -10.37596,-7.21511 -10.74894,-14.45174c4.73861,-11.12249 -12.15549,-16.84368 -16.64319,-5.45271c-3.36533,12.72677 -0.34994,25.73603 4.08143,38.04656c5.0638,15.11873 -7.57137,28.23089 -11.28254,42.25981c-3.53135,8.88863 -3.64521,19.14861 2.2935,27.30761c8.09628,12.70711 25.1039,17.42552 40.59487,17.54714c2.76021,0.20954 5.50335,0.38727 8.26784,0.54723c49.17591,3.07201 29.32101,-32.86884 21.5781,-63.99679c-4.96907,-20.26461 1.26487,-34.03161 5.35057,-39.86318c2.26945,-6.87556 5.14572,-21.51529 -8.46755,-14.47327l0,-0.00094l0,0l0,-0.00003zm-29.50282,-120.13052c2.07827,-11.14868 -6.91673,0.66323 0,0z" id="svg_8"/>
  <path transform="rotate(70 371.434 92.537)" stroke="#000" fill="#EDB6DC" stroke-width="0" d="m382.67166,28.65505l-43.32211,57.82794l42.78655,19.86663l-39.54722,62.08328l-15.9668,-10.48371l11.32471,59.84144l45.00545,-26.10845l-19.00202,-10.91321l51.59885,-89.17164l-47.16717,-16.16176l45.54754,-60.25762l-25.98118,-9.04737l28.29739,-38.29688l-10.39526,-0.55038l-43.91197,52.5392l20.73326,8.83256l0,-0.00002l-0.00003,0z" id="svg_9"/>
 </g>

</svg>