<svg width="350" height="80" xmlns="http://www.w3.org/2000/svg">
 <g>
  <title>Layer 1</title>
  <text font-weight="bold" font-style="italic" xml:space="preserve" text-anchor="start" font-family="'Fraunces'" font-size="24" id="svg_2" y="112.48947" x="118.71195" stroke-width="0" fill="#BF7E96" stroke="#000" transform="rotate(-11 195.09 32.4471) matrix(1.45945 0 0 1.62344 -99.74 -136.29)">Ankit's Project</text>
  <path transform="rotate(71 88.3998 25.3376)" stroke="#000" id="svg_8" d="m100.18396,-64.12924c-1.37543,0.11976 -2.62579,1.22601 -3.64741,2.73133c0.00471,8.07134 -5.81787,15.01138 -7.78525,20.5994c1.20638,1.10762 0.59142,1.75854 -0.53961,2.65509c-0.08897,1.50872 0.24494,2.97877 1.2917,4.40978c-1.35607,25.10562 -3.15283,55.26399 -4.56281,80.6127c3.21774,0.08274 6.46581,0.66968 9.84579,0.41188c-0.00367,-19.51768 1.32886,-50.69744 1.71772,-69.54994c-0.05286,-6.12084 -0.26378,-14.4061 6.86881,-17.3035c-3.63485,-8.86303 3.09945,-21.40378 -2.91102,-24.56673c-0.07641,-0.00072 -0.15335,-0.0053 -0.22924,0c-0.01622,0.00113 -0.03245,-0.00141 -0.04868,0l0,0l0,0l-0.00001,0zm6.11934,102.9776c-2.46773,3.99706 -6.17167,6.09722 -7.40371,8.15661c-2.81367,5.0768 -7.52566,-1.89871 -14.07364,1.79618c0.03402,-0.61392 0.08008,-1.30218 0.11462,-1.92209c-0.03768,-0.00119 -0.07693,0.0006 -0.11462,0c-3.48518,0.60732 -6.36271,-4.62417 -6.59143,-9.26214c2.90579,-7.12842 -7.45394,-10.79513 -10.20588,-3.49465c-2.06368,8.1566 -0.21459,16.49425 2.5028,24.38408c3.1052,9.68961 -4.64289,18.09321 -6.91864,27.08436c-2.16548,5.69673 -2.2353,12.27237 1.40641,17.50148c4.96477,8.144 15.39412,11.16804 24.89344,11.24598c1.69261,0.13429 3.37474,0.2482 5.06997,0.35072c30.15547,1.96885 17.98012,-21.06568 13.23204,-41.01561c-3.04711,-12.98761 0.77564,-21.8109 3.28106,-25.54836c1.39166,-4.40655 3.15544,-13.78917 -5.19244,-9.27593l0,-0.0006l0,0l0,-0.00002l0.00001,-0.00001zm-18.09161,-76.99178c1.27443,-7.1452 -4.24145,0.42506 0,0z" stroke-width="0" fill="#EDB6DC"/>
  <path transform="rotate(70 269.434 53.0369)" stroke="#000" id="svg_9" d="m275.56534,13.55943l-23.63669,35.73622l23.34449,12.27708l-21.5771,38.36591l-8.71154,-6.47867l6.1788,36.98051l24.55513,-16.13437l-10.36757,-6.74409l28.15251,-55.10584l-25.73457,-9.98756l24.85089,-37.2377l-14.17542,-5.59105l15.43915,-23.66651l-5.67169,-0.34012l-23.95852,32.46791l11.31214,5.4583l0,-0.00001l-0.00002,0l0.00001,-0.00001z" stroke-width="0" fill="#EDB6DC"/>
 </g>

</svg>